<svg width="28" height="28" viewBox="0 0 28 28" fill="none" xmlns="http://www.w3.org/2000/svg">
<g filter="url(#filter0_d_44_33)">
<path fill-rule="evenodd" clip-rule="evenodd" d="M16.4524 7.4376C17.1709 7.2451 17.9093 7.67145 18.1018 8.38989L18.5337 10.0017C18.6262 10.3467 18.8519 10.6409 19.1612 10.8195L20.6063 11.6538C21.2504 12.0257 21.4711 12.8493 21.0992 13.4935L20.2649 14.9385C20.0863 15.2479 20.0379 15.6155 20.1304 15.9605L20.5623 17.5723C20.7548 18.2907 20.3284 19.0292 19.61 19.2217L17.9982 19.6536C17.6531 19.746 17.359 19.9717 17.1804 20.2811L16.3461 21.7261C15.9742 22.3703 15.1506 22.591 14.5064 22.2191L13.0613 21.3847C12.752 21.2062 12.3844 21.1577 12.0394 21.2502L10.4276 21.6821C9.70914 21.8746 8.97067 21.4482 8.77816 20.7298L8.34629 19.1181C8.25385 18.773 8.02814 18.4788 7.71881 18.3003L6.27369 17.4659C5.62956 17.0941 5.40886 16.2704 5.78075 15.6263L6.61509 14.1811C6.79368 13.8718 6.84208 13.5042 6.74963 13.1592L6.31775 11.5474C6.12525 10.829 6.5516 10.0905 7.27005 9.89802L8.88183 9.46614C9.22684 9.37369 9.52099 9.14798 9.69957 8.83866L10.5339 7.39357C10.9058 6.74943 11.7294 6.52873 12.3736 6.90062L13.8187 7.73495C14.128 7.91353 14.4956 7.96193 14.8406 7.86949L16.4524 7.4376ZM11.6608 17.6414C13.3627 18.624 15.5389 18.0409 16.5215 16.339C17.5041 14.6371 16.921 12.4609 15.2191 11.4783C13.5172 10.4957 11.341 11.0788 10.3584 12.7807C9.37581 14.4826 9.95893 16.6588 11.6608 17.6414Z" fill="white"/>
</g>
<defs>
<filter id="filter0_d_44_33" x="1.12016" y="2.24004" width="24.6396" height="24.6396" filterUnits="userSpaceOnUse" color-interpolation-filters="sRGB">
<feFlood flood-opacity="0" result="BackgroundImageFix"/>
<feColorMatrix in="SourceAlpha" type="matrix" values="0 0 0 0 0 0 0 0 0 0 0 0 0 0 0 0 0 0 127 0" result="hardAlpha"/>
<feOffset/>
<feGaussianBlur stdDeviation="2.23997"/>
<feColorMatrix type="matrix" values="0 0 0 0 0 0 0 0 0 0 0 0 0 0 0 0 0 0 0.25 0"/>
<feBlend mode="normal" in2="BackgroundImageFix" result="effect1_dropShadow_44_33"/>
<feBlend mode="normal" in="SourceGraphic" in2="effect1_dropShadow_44_33" result="shape"/>
</filter>
</defs>
</svg>
