<svg width="44" height="23" viewBox="0 0 44 23" fill="none" xmlns="http://www.w3.org/2000/svg">
<path fill-rule="evenodd" clip-rule="evenodd" d="M41.2828 3.62254C41.805 3.72066 42.4323 2.35392 41.9382 2.12964C34.1512 -2.35257 33.3662 1.35866 25.6564 3.13191L25.5583 2.85506C25.313 2.17519 25.3235 2.38546 24.5455 2.60274L24.1705 2.70787C22.8879 3.06533 23.4556 2.9637 22.4183 2.30135C20.0773 0.808455 16.5343 1.1554 14.1688 2.67984C12.1187 4.00102 11.961 5.10843 11.4739 7.25315C11.0253 9.21916 4.61918 14.9945 0.490924 18.8564L2.4394 20.882L5.14835 18.0609L7.92388 21.1133C8.67383 21.9368 9.16446 22.813 10.398 22.7253C11.2321 22.6658 13.4049 21.4147 14.2529 20.9941L17.8029 19.2314C18.4408 18.6251 18.7421 17.8366 18.6791 16.8449C19.6077 16.964 20.4068 16.7432 21.0866 16.2C23.5327 14.2481 22.2536 12.9339 22.5935 10.7962C22.6181 10.649 22.6461 10.4983 22.6847 10.3511C23.2384 8.10824 24.4649 7.39684 26.2557 6.57679C26.8234 6.31746 26.7638 6.45414 26.5466 5.86539L26.459 5.62709C33.163 3.88537 34.6103 0.42647 41.2828 3.62254ZM42.1379 3.55946C41.784 5.12595 40.7221 5.90744 40.7221 6.68894C40.7221 7.47043 41.0761 8.25543 42.1379 8.25543C43.1998 8.25543 43.5537 7.47394 43.5537 6.68894C43.5537 5.90744 42.4919 5.12595 42.1379 3.55946ZM16.2645 14.5985C16.1383 14.1815 16.1909 13.7084 16.5799 13.3334L15.0765 12.0753C14.4912 11.6583 13.8359 11.4655 13.0965 11.5566C11.0779 11.8054 8.05705 15.2889 6.50107 16.7187L9.5114 20.125C11.2671 17.5983 13.2507 14.2936 16.2645 14.5985ZM16.8357 16.2771C16.664 16.1545 16.4607 16.0984 16.2224 16.1089L14.7681 18.8144C15.483 18.5831 18.3742 17.388 16.8357 16.2771ZM14.9819 15.8286C13.9375 16.3402 12.4271 18.1415 10.9377 20.0549C10.6609 20.2792 10.9728 20.9346 11.6701 20.3949L12.5848 19.9078C14.2775 18.951 14.4702 18.0469 14.9819 15.8286Z" fill="white" fill-opacity="0.3"/>
</svg>
