<svg width="52" height="52" viewBox="0 0 52 52" fill="none" xmlns="http://www.w3.org/2000/svg">
<g clip-path="url(#clip0_44_53)" filter="url(#filter0_d_44_53)">
<mask id="mask0_44_53" style="mask-type:luminance" maskUnits="userSpaceOnUse" x="9" y="14" width="34" height="24">
<path d="M38.0081 14.319L9.39771 27.387L13.8683 37.1748L42.4788 24.1068L38.0081 14.319Z" fill="white"/>
</mask>
<g mask="url(#mask0_44_53)">
<path fill-rule="evenodd" clip-rule="evenodd" d="M37.1141 26.557C40.0767 25.2037 41.4776 21.9156 40.2431 19.2128C39.0085 16.51 35.606 15.4159 32.6433 16.7691C30.5475 17.7264 29.2328 19.6525 29.0805 21.6543L29.1168 21.666L29.6384 24.3852L28.108 22.1267L12.4273 29.2891L11.2601 31.4653L14.9272 32.4363L15.805 30.375L18.3383 31.1895L18.9343 30.9173L19.6297 29.2853L21.3185 29.8284L22.5106 29.2839L23.206 27.6518L24.8948 28.1949L25.4909 27.9226L26.5339 25.4746L29.0672 26.2891L30.5643 25.6053C32.1695 27.1695 34.7787 27.6236 37.1141 26.557ZM37.7596 21.6616C38.418 21.3609 38.7293 20.6302 38.4549 20.0295C38.1806 19.4289 37.4245 19.1858 36.7661 19.4865C36.1078 19.7872 35.7965 20.5179 36.0707 21.1186C36.345 21.7192 37.1013 21.9623 37.7596 21.6616Z" fill="white"/>
</g>
</g>
<defs>
<filter id="filter0_d_44_53" x="0.858591" y="2.55024" width="51.3712" height="46.296" filterUnits="userSpaceOnUse" color-interpolation-filters="sRGB">
<feFlood flood-opacity="0" result="BackgroundImageFix"/>
<feColorMatrix in="SourceAlpha" type="matrix" values="0 0 0 0 0 0 0 0 0 0 0 0 0 0 0 0 0 0 127 0" result="hardAlpha"/>
<feOffset/>
<feGaussianBlur stdDeviation="3.75747"/>
<feColorMatrix type="matrix" values="0 0 0 0 0 0 0 0 0 0 0 0 0 0 0 0 0 0 0.25 0"/>
<feBlend mode="normal" in2="BackgroundImageFix" result="effect1_dropShadow_44_53"/>
<feBlend mode="normal" in="SourceGraphic" in2="effect1_dropShadow_44_53" result="shape"/>
</filter>
<clipPath id="clip0_44_53">
<rect width="33.8172" height="28.181" fill="white" transform="translate(11.0505 10.0652) rotate(5.45114)"/>
</clipPath>
</defs>
</svg>
