<svg width="52" height="52" viewBox="0 0 52 52" fill="none" xmlns="http://www.w3.org/2000/svg">
<g filter="url(#filter0_d_44_45)">
<mask id="mask0_44_45" style="mask-type:luminance" maskUnits="userSpaceOnUse" x="11" y="13" width="29" height="25">
<path d="M33.5786 13.7005L11.0261 24.0015L17.2803 37.694L39.8328 27.393L33.5786 13.7005Z" fill="white"/>
</mask>
<g mask="url(#mask0_44_45)">
<path fill-rule="evenodd" clip-rule="evenodd" d="M20.1897 19.8965C19.9391 22.5755 20.8158 29.0138 26.3278 33.3348C27.0239 33.1215 27.8063 32.8418 28.625 32.499C26.2412 30.7066 22.9894 27.4668 22.714 24.0192C24.1102 26.4381 27.4958 30.9256 30.8226 31.4586C34.9929 29.2371 38.9933 25.5571 36.8388 20.8403C33.8668 14.3333 24.5011 17.4998 20.1897 19.8965Z" fill="white"/>
<path fill-rule="evenodd" clip-rule="evenodd" d="M15.8121 35.7664L22.8895 32.5927C22.553 32.1989 22.2392 31.7985 21.9468 31.3937L15.1563 34.3304L15.8121 35.7664ZM14.5613 33.0278L21.1748 30.2375C20.8985 29.789 20.6462 29.3378 20.4161 28.8866L13.9054 31.5919L14.5613 33.0278ZM13.3105 30.2893L19.8135 27.5903C19.5991 27.0819 19.4112 26.5772 19.2472 26.0804L12.6546 28.8534L13.3105 30.2893ZM12.0596 27.5508L18.8281 24.6324C18.6821 24.0479 18.5683 23.4813 18.482 22.9405L11.4038 26.1149L12.0596 27.5508Z" fill="white" fill-opacity="0.85"/>
</g>
</g>
<defs>
<filter id="filter0_d_44_45" x="0.858835" y="2.55049" width="49.5011" height="46.1175" filterUnits="userSpaceOnUse" color-interpolation-filters="sRGB">
<feFlood flood-opacity="0" result="BackgroundImageFix"/>
<feColorMatrix in="SourceAlpha" type="matrix" values="0 0 0 0 0 0 0 0 0 0 0 0 0 0 0 0 0 0 127 0" result="hardAlpha"/>
<feOffset/>
<feGaussianBlur stdDeviation="3.75747"/>
<feColorMatrix type="matrix" values="0 0 0 0 0 0 0 0 0 0 0 0 0 0 0 0 0 0 0.25 0"/>
<feBlend mode="normal" in2="BackgroundImageFix" result="effect1_dropShadow_44_45"/>
<feBlend mode="normal" in="SourceGraphic" in2="effect1_dropShadow_44_45" result="shape"/>
</filter>
</defs>
</svg>
