<svg width="52" height="52" viewBox="0 0 52 52" fill="none" xmlns="http://www.w3.org/2000/svg">
<g clip-path="url(#clip0_44_60)" filter="url(#filter0_d_44_60)">
<mask id="mask0_44_60" style="mask-type:luminance" maskUnits="userSpaceOnUse" x="11" y="13" width="32" height="25">
<path d="M42.0419 16.5624L13.4375 13.8328L11.4098 35.0817L40.0141 37.8113L42.0419 16.5624Z" fill="white"/>
</mask>
<g mask="url(#mask0_44_60)">
<path d="M22.2383 23.0964L23.932 23.258L22.6942 24.2885L20.7762 24.4884L17.9605 26.1343L19.4951 23.9832L21.7895 23.8194L22.2383 23.0964Z" fill="white"/>
<path d="M38.7234 16.2457L41.4687 22.5643L35.3911 25.481L32.6459 19.1625L38.7234 16.2457Z" fill="white"/>
<path d="M16.8446 26.7468L20.8053 32.482L14.7277 35.3988L11.9825 29.0803L16.8446 26.7468Z" fill="white"/>
<path d="M24.1373 23.2464L26.8824 29.565L25.0886 29.6624L23.8437 31.0234L20.8049 32.4818L18.0597 26.1633L21.0985 24.7048L22.8924 24.6075L24.1373 23.2464Z" fill="white"/>
<path fill-rule="evenodd" clip-rule="evenodd" d="M35.6656 26.1131L31.8224 17.2672L25.7448 20.184L30.1371 30.2937L36.2146 27.3769L35.6656 26.1131ZM35.6656 26.1131L30.8035 28.4466L27.5093 20.8643L31.1558 19.1143L35.6656 26.1131Z" fill="white"/>
<path d="M33.2039 17.6334L32.111 17.1462L33.0952 18.7717L38.6541 16.239L33.2039 17.6334Z" fill="white"/>
</g>
</g>
<defs>
<filter id="filter0_d_44_60" x="2.90669" y="4.59882" width="47.2738" height="42.1986" filterUnits="userSpaceOnUse" color-interpolation-filters="sRGB">
<feFlood flood-opacity="0" result="BackgroundImageFix"/>
<feColorMatrix in="SourceAlpha" type="matrix" values="0 0 0 0 0 0 0 0 0 0 0 0 0 0 0 0 0 0 127 0" result="hardAlpha"/>
<feOffset/>
<feGaussianBlur stdDeviation="3.75747"/>
<feColorMatrix type="matrix" values="0 0 0 0 0 0 0 0 0 0 0 0 0 0 0 0 0 0 0.25 0"/>
<feBlend mode="normal" in2="BackgroundImageFix" result="effect1_dropShadow_44_60"/>
<feBlend mode="normal" in="SourceGraphic" in2="effect1_dropShadow_44_60" result="shape"/>
</filter>
<clipPath id="clip0_44_60">
<rect width="30.0598" height="24.4236" fill="white" transform="translate(12.7417 12.1138) rotate(5.45114)"/>
</clipPath>
</defs>
</svg>
