<svg width="27" height="27" viewBox="0 0 27 27" fill="none" xmlns="http://www.w3.org/2000/svg">
<g clip-path="url(#clip0_44_2)" filter="url(#filter0_d_44_2)">
<path d="M21.0093 11.9244C20.6936 11.8493 20.3322 11.883 19.9962 12.0252C19.6576 12.1675 19.3776 12.4004 19.207 12.685C19.0238 12.9877 18.9856 13.3267 19.1026 13.6138C19.2198 13.901 19.482 14.1132 19.8231 14.196C19.9325 14.2244 20.0471 14.2373 20.1642 14.2373C20.3856 14.2373 20.6173 14.1908 20.8387 14.0977C21.5744 13.7872 21.9665 13.0886 21.7322 12.5091C21.6152 12.2219 21.3504 12.0097 21.0093 11.9244Z" fill="white"/>
<path d="M21.0093 11.9244C20.6936 11.8493 20.3322 11.883 19.9962 12.0252C19.6576 12.1675 19.3776 12.4004 19.207 12.685C19.0238 12.9877 18.9856 13.3267 19.1026 13.6138C19.2198 13.901 19.482 14.1132 19.8231 14.196C19.9325 14.2244 20.0471 14.2373 20.1642 14.2373C20.3856 14.2373 20.6173 14.1908 20.8387 14.0977C21.5744 13.7872 21.9665 13.0886 21.7322 12.5091C21.6152 12.2219 21.3504 12.0097 21.0093 11.9244Z" fill="white" fill-opacity="0.7"/>
<path d="M21.0093 11.9244C20.6936 11.8493 20.3322 11.883 19.9962 12.0252C19.6576 12.1675 19.3776 12.4004 19.207 12.685C19.0238 12.9877 18.9856 13.3267 19.1026 13.6138C19.2198 13.901 19.482 14.1132 19.8231 14.196C19.9325 14.2244 20.0471 14.2373 20.1642 14.2373C20.3856 14.2373 20.6173 14.1908 20.8387 14.0977C21.5744 13.7872 21.9665 13.0886 21.7322 12.5091C21.6152 12.2219 21.3504 12.0097 21.0093 11.9244Z" fill="white" fill-opacity="0.25"/>
<path d="M21.0093 11.9244C20.6936 11.8493 20.3322 11.883 19.9962 12.0252C19.6576 12.1675 19.3776 12.4004 19.207 12.685C19.0238 12.9877 18.9856 13.3267 19.1026 13.6138C19.2198 13.901 19.482 14.1132 19.8231 14.196C19.9325 14.2244 20.0471 14.2373 20.1642 14.2373C20.3856 14.2373 20.6173 14.1908 20.8387 14.0977C21.5744 13.7872 21.9665 13.0886 21.7322 12.5091C21.6152 12.2219 21.3504 12.0097 21.0093 11.9244Z" fill="white" fill-opacity="0.7"/>
<path d="M13.7798 19.4865C13.4616 19.4089 13.1027 19.4451 12.7641 19.5874C12.4255 19.7298 12.1481 19.9626 11.9775 20.2446C11.7917 20.5499 11.7535 20.8888 11.8706 21.176C12.0335 21.5744 12.4459 21.7995 12.9296 21.7995C13.1459 21.7995 13.3776 21.7556 13.6067 21.6572C14.3449 21.3494 14.7369 20.6508 14.5002 20.0687C14.3831 19.7815 14.1209 19.5693 13.7798 19.4865Z" fill="white"/>
<path d="M13.7798 19.4865C13.4616 19.4089 13.1027 19.4451 12.7641 19.5874C12.4255 19.7298 12.1481 19.9626 11.9775 20.2446C11.7917 20.5499 11.7535 20.8888 11.8706 21.176C12.0335 21.5744 12.4459 21.7995 12.9296 21.7995C13.1459 21.7995 13.3776 21.7556 13.6067 21.6572C14.3449 21.3494 14.7369 20.6508 14.5002 20.0687C14.3831 19.7815 14.1209 19.5693 13.7798 19.4865Z" fill="white" fill-opacity="0.7"/>
<path d="M13.7798 19.4865C13.4616 19.4089 13.1027 19.4451 12.7641 19.5874C12.4255 19.7298 12.1481 19.9626 11.9775 20.2446C11.7917 20.5499 11.7535 20.8888 11.8706 21.176C12.0335 21.5744 12.4459 21.7995 12.9296 21.7995C13.1459 21.7995 13.3776 21.7556 13.6067 21.6572C14.3449 21.3494 14.7369 20.6508 14.5002 20.0687C14.3831 19.7815 14.1209 19.5693 13.7798 19.4865Z" fill="white" fill-opacity="0.25"/>
<path d="M13.7798 19.4865C13.4616 19.4089 13.1027 19.4451 12.7641 19.5874C12.4255 19.7298 12.1481 19.9626 11.9775 20.2446C11.7917 20.5499 11.7535 20.8888 11.8706 21.176C12.0335 21.5744 12.4459 21.7995 12.9296 21.7995C13.1459 21.7995 13.3776 21.7556 13.6067 21.6572C14.3449 21.3494 14.7369 20.6508 14.5002 20.0687C14.3831 19.7815 14.1209 19.5693 13.7798 19.4865Z" fill="white" fill-opacity="0.7"/>
<path d="M6.89646 8.86337C7.10265 8.86337 7.29866 8.81163 7.47685 8.70814C8.15652 8.3097 8.29143 7.24892 7.77723 6.34597C7.26302 5.44043 6.29061 5.02905 5.61349 5.42749C5.21128 5.66293 5 6.12864 5 6.65644C5 7.02383 5.10182 7.42227 5.31311 7.79225C5.55494 8.21656 5.90368 8.54773 6.2957 8.72625C6.4968 8.8168 6.70045 8.86337 6.89646 8.86337Z" fill="white"/>
<path d="M6.89646 8.86337C7.10265 8.86337 7.29866 8.81163 7.47685 8.70814C8.15652 8.3097 8.29143 7.24892 7.77723 6.34597C7.26302 5.44043 6.29061 5.02905 5.61349 5.42749C5.21128 5.66293 5 6.12864 5 6.65644C5 7.02383 5.10182 7.42227 5.31311 7.79225C5.55494 8.21656 5.90368 8.54773 6.2957 8.72625C6.4968 8.8168 6.70045 8.86337 6.89646 8.86337Z" fill="white" fill-opacity="0.7"/>
<path d="M6.89646 8.86337C7.10265 8.86337 7.29866 8.81163 7.47685 8.70814C8.15652 8.3097 8.29143 7.24892 7.77723 6.34597C7.26302 5.44043 6.29061 5.02905 5.61349 5.42749C5.21128 5.66293 5 6.12864 5 6.65644C5 7.02383 5.10182 7.42227 5.31311 7.79225C5.55494 8.21656 5.90368 8.54773 6.2957 8.72625C6.4968 8.8168 6.70045 8.86337 6.89646 8.86337Z" fill="white" fill-opacity="0.25"/>
<path d="M6.89646 8.86337C7.10265 8.86337 7.29866 8.81163 7.47685 8.70814C8.15652 8.3097 8.29143 7.24892 7.77723 6.34597C7.26302 5.44043 6.29061 5.02905 5.61349 5.42749C5.21128 5.66293 5 6.12864 5 6.65644C5 7.02383 5.10182 7.42227 5.31311 7.79225C5.55494 8.21656 5.90368 8.54773 6.2957 8.72625C6.4968 8.8168 6.70045 8.86337 6.89646 8.86337Z" fill="white" fill-opacity="0.7"/>
<path d="M18.087 18.9821C17.9343 19.2511 17.9292 19.5926 18.0717 19.9186C18.2041 20.2213 18.451 20.4904 18.7692 20.6767C19.0492 20.8423 19.3446 20.9225 19.6195 20.9225C20.0191 20.9225 20.3678 20.7517 20.5511 20.4283C20.8617 19.885 20.5613 19.1398 19.8715 18.7362C19.1791 18.33 18.3976 18.4387 18.087 18.9821Z" fill="white"/>
<path d="M18.087 18.9821C17.9343 19.2511 17.9292 19.5926 18.0717 19.9186C18.2041 20.2213 18.451 20.4904 18.7692 20.6767C19.0492 20.8423 19.3446 20.9225 19.6195 20.9225C20.0191 20.9225 20.3678 20.7517 20.5511 20.4283C20.8617 19.885 20.5613 19.1398 19.8715 18.7362C19.1791 18.33 18.3976 18.4387 18.087 18.9821Z" fill="white" fill-opacity="0.7"/>
<path d="M18.087 18.9821C17.9343 19.2511 17.9292 19.5926 18.0717 19.9186C18.2041 20.2213 18.451 20.4904 18.7692 20.6767C19.0492 20.8423 19.3446 20.9225 19.6195 20.9225C20.0191 20.9225 20.3678 20.7517 20.5511 20.4283C20.8617 19.885 20.5613 19.1398 19.8715 18.7362C19.1791 18.33 18.3976 18.4387 18.087 18.9821Z" fill="white" fill-opacity="0.25"/>
<path d="M18.087 18.9821C17.9343 19.2511 17.9292 19.5926 18.0717 19.9186C18.2041 20.2213 18.451 20.4904 18.7692 20.6767C19.0492 20.8423 19.3446 20.9225 19.6195 20.9225C20.0191 20.9225 20.3678 20.7517 20.5511 20.4283C20.8617 19.885 20.5613 19.1398 19.8715 18.7362C19.1791 18.33 18.3976 18.4387 18.087 18.9821Z" fill="white" fill-opacity="0.7"/>
<path d="M18.764 6.69791C18.5196 6.51163 18.1862 6.46765 17.8502 6.57631C17.5396 6.67721 17.2494 6.89714 17.033 7.19467C16.8167 7.49479 16.6944 7.84149 16.6919 8.17265C16.6894 8.52969 16.8294 8.84017 17.0763 9.02387C17.2341 9.14287 17.4276 9.20238 17.6338 9.20238C17.7483 9.20238 17.868 9.18427 17.9902 9.14547C18.3007 9.04456 18.5909 8.82464 18.8073 8.52452C19.0237 8.22699 19.1459 7.88029 19.1484 7.54912C19.1509 7.19208 19.011 6.88161 18.764 6.69791Z" fill="white"/>
<path d="M18.764 6.69791C18.5196 6.51163 18.1862 6.46765 17.8502 6.57631C17.5396 6.67721 17.2494 6.89714 17.033 7.19467C16.8167 7.49479 16.6944 7.84149 16.6919 8.17265C16.6894 8.52969 16.8294 8.84017 17.0763 9.02387C17.2341 9.14287 17.4276 9.20238 17.6338 9.20238C17.7483 9.20238 17.868 9.18427 17.9902 9.14547C18.3007 9.04456 18.5909 8.82464 18.8073 8.52452C19.0237 8.22699 19.1459 7.88029 19.1484 7.54912C19.1509 7.19208 19.011 6.88161 18.764 6.69791Z" fill="white" fill-opacity="0.7"/>
<path d="M18.764 6.69791C18.5196 6.51163 18.1862 6.46765 17.8502 6.57631C17.5396 6.67721 17.2494 6.89714 17.033 7.19467C16.8167 7.49479 16.6944 7.84149 16.6919 8.17265C16.6894 8.52969 16.8294 8.84017 17.0763 9.02387C17.2341 9.14287 17.4276 9.20238 17.6338 9.20238C17.7483 9.20238 17.868 9.18427 17.9902 9.14547C18.3007 9.04456 18.5909 8.82464 18.8073 8.52452C19.0237 8.22699 19.1459 7.88029 19.1484 7.54912C19.1509 7.19208 19.011 6.88161 18.764 6.69791Z" fill="white" fill-opacity="0.25"/>
<path d="M18.764 6.69791C18.5196 6.51163 18.1862 6.46765 17.8502 6.57631C17.5396 6.67721 17.2494 6.89714 17.033 7.19467C16.8167 7.49479 16.6944 7.84149 16.6919 8.17265C16.6894 8.52969 16.8294 8.84017 17.0763 9.02387C17.2341 9.14287 17.4276 9.20238 17.6338 9.20238C17.7483 9.20238 17.868 9.18427 17.9902 9.14547C18.3007 9.04456 18.5909 8.82464 18.8073 8.52452C19.0237 8.22699 19.1459 7.88029 19.1484 7.54912C19.1509 7.19208 19.011 6.88161 18.764 6.69791Z" fill="white" fill-opacity="0.7"/>
<path d="M6.98296 13.5567L7.74154 13.9837C7.97319 14.113 8.20229 14.2553 8.2532 14.4493C8.30412 14.6538 8.15902 14.8918 8.00374 15.1402C7.97064 15.1945 7.93755 15.2462 7.90701 15.298C7.28334 16.3562 7.42844 17.7843 8.24302 18.62C8.69614 19.0831 9.32235 19.316 9.94093 19.316C10.5111 19.316 11.0762 19.1168 11.4861 18.7106C11.733 18.4674 11.9188 18.1698 12.0996 17.8852C12.3669 17.4558 12.6214 17.0522 13.0262 16.915C13.4768 16.7649 13.9858 17.003 14.332 17.2281C14.4721 17.3212 14.6095 17.4195 14.7444 17.5179C15.0499 17.7429 15.3681 17.9758 15.7397 18.1207C16.5824 18.457 17.8093 18.3432 18.4254 17.4765C18.6672 17.135 18.5602 16.5735 18.377 16.3199C18.2064 16.0819 17.9442 15.893 17.6948 15.7094C17.4453 15.5308 17.1882 15.3445 17.0736 15.1427C16.8216 14.7029 16.5798 14.1932 16.6994 13.7353C16.7427 13.5697 16.8344 13.4119 16.9311 13.2437L16.9616 13.1919C17.0227 13.0833 17.1474 12.9358 17.2773 12.7832C17.5522 12.4623 17.8348 12.1311 17.8729 11.7974C17.9391 11.2619 17.7609 10.747 17.4122 10.4546C17.0278 10.1312 16.5569 10.1157 16.1012 10.1002C15.8212 10.0898 15.5539 10.0821 15.3223 10.0019C15.2383 9.9734 15.2204 9.9527 15.2179 9.94753C15.2128 9.94235 15.2052 9.92165 15.1975 9.84662C15.1746 9.59048 15.2281 9.324 15.3427 9.09373C15.3757 9.02905 15.4114 8.96178 15.447 8.89451C15.6455 8.52712 15.8696 8.11057 15.7474 7.70955C15.6787 7.48187 15.5107 7.29817 15.2459 7.16363C15.0041 7.03685 14.5688 6.81177 14.1081 6.81177C13.7796 6.81177 13.436 6.9256 13.1382 7.26971C12.8429 7.61123 12.6749 8.09505 12.6545 8.67459L12.6519 8.77291C12.6469 8.97471 12.6418 9.16358 12.5552 9.2826C12.4101 9.48441 12.0359 9.46371 11.7483 9.40938C11.453 9.35504 11.1602 9.2826 10.8675 9.19463C10.7428 9.15583 10.5875 9.10925 10.4169 9.13771C10.2948 9.15841 10.1751 9.21533 10.0631 9.30847C9.68127 9.62412 9.56164 10.2037 9.79328 10.628C9.87983 10.7858 10.002 10.9048 10.1089 11.0109L10.1624 11.0678C10.3635 11.2722 10.5951 11.5801 10.5519 11.8854C10.5264 12.0691 10.4042 12.1907 10.3075 12.2606C10.0937 12.4132 9.78564 12.4727 9.51836 12.4158C9.11361 12.3278 8.75723 12.0717 8.38303 11.8026C8.29648 11.7379 8.20993 11.6758 8.12083 11.6137C7.823 11.4067 7.46153 11.192 7.04405 11.1558C6.54767 11.1144 6.08437 11.368 5.91636 11.7742C5.76617 12.1311 5.85782 12.5891 6.14546 12.9358C6.3822 13.223 6.7004 13.4015 6.98296 13.5567Z" fill="white"/>
<path d="M6.98296 13.5567L7.74154 13.9837C7.97319 14.113 8.20229 14.2553 8.2532 14.4493C8.30412 14.6538 8.15902 14.8918 8.00374 15.1402C7.97064 15.1945 7.93755 15.2462 7.90701 15.298C7.28334 16.3562 7.42844 17.7843 8.24302 18.62C8.69614 19.0831 9.32235 19.316 9.94093 19.316C10.5111 19.316 11.0762 19.1168 11.4861 18.7106C11.733 18.4674 11.9188 18.1698 12.0996 17.8852C12.3669 17.4558 12.6214 17.0522 13.0262 16.915C13.4768 16.7649 13.9858 17.003 14.332 17.2281C14.4721 17.3212 14.6095 17.4195 14.7444 17.5179C15.0499 17.7429 15.3681 17.9758 15.7397 18.1207C16.5824 18.457 17.8093 18.3432 18.4254 17.4765C18.6672 17.135 18.5602 16.5735 18.377 16.3199C18.2064 16.0819 17.9442 15.893 17.6948 15.7094C17.4453 15.5308 17.1882 15.3445 17.0736 15.1427C16.8216 14.7029 16.5798 14.1932 16.6994 13.7353C16.7427 13.5697 16.8344 13.4119 16.9311 13.2437L16.9616 13.1919C17.0227 13.0833 17.1474 12.9358 17.2773 12.7832C17.5522 12.4623 17.8348 12.1311 17.8729 11.7974C17.9391 11.2619 17.7609 10.747 17.4122 10.4546C17.0278 10.1312 16.5569 10.1157 16.1012 10.1002C15.8212 10.0898 15.5539 10.0821 15.3223 10.0019C15.2383 9.9734 15.2204 9.9527 15.2179 9.94753C15.2128 9.94235 15.2052 9.92165 15.1975 9.84662C15.1746 9.59048 15.2281 9.324 15.3427 9.09373C15.3757 9.02905 15.4114 8.96178 15.447 8.89451C15.6455 8.52712 15.8696 8.11057 15.7474 7.70955C15.6787 7.48187 15.5107 7.29817 15.2459 7.16363C15.0041 7.03685 14.5688 6.81177 14.1081 6.81177C13.7796 6.81177 13.436 6.9256 13.1382 7.26971C12.8429 7.61123 12.6749 8.09505 12.6545 8.67459L12.6519 8.77291C12.6469 8.97471 12.6418 9.16358 12.5552 9.2826C12.4101 9.48441 12.0359 9.46371 11.7483 9.40938C11.453 9.35504 11.1602 9.2826 10.8675 9.19463C10.7428 9.15583 10.5875 9.10925 10.4169 9.13771C10.2948 9.15841 10.1751 9.21533 10.0631 9.30847C9.68127 9.62412 9.56164 10.2037 9.79328 10.628C9.87983 10.7858 10.002 10.9048 10.1089 11.0109L10.1624 11.0678C10.3635 11.2722 10.5951 11.5801 10.5519 11.8854C10.5264 12.0691 10.4042 12.1907 10.3075 12.2606C10.0937 12.4132 9.78564 12.4727 9.51836 12.4158C9.11361 12.3278 8.75723 12.0717 8.38303 11.8026C8.29648 11.7379 8.20993 11.6758 8.12083 11.6137C7.823 11.4067 7.46153 11.192 7.04405 11.1558C6.54767 11.1144 6.08437 11.368 5.91636 11.7742C5.76617 12.1311 5.85782 12.5891 6.14546 12.9358C6.3822 13.223 6.7004 13.4015 6.98296 13.5567Z" fill="white" fill-opacity="0.7"/>
<path d="M6.98296 13.5567L7.74154 13.9837C7.97319 14.113 8.20229 14.2553 8.2532 14.4493C8.30412 14.6538 8.15902 14.8918 8.00374 15.1402C7.97064 15.1945 7.93755 15.2462 7.90701 15.298C7.28334 16.3562 7.42844 17.7843 8.24302 18.62C8.69614 19.0831 9.32235 19.316 9.94093 19.316C10.5111 19.316 11.0762 19.1168 11.4861 18.7106C11.733 18.4674 11.9188 18.1698 12.0996 17.8852C12.3669 17.4558 12.6214 17.0522 13.0262 16.915C13.4768 16.7649 13.9858 17.003 14.332 17.2281C14.4721 17.3212 14.6095 17.4195 14.7444 17.5179C15.0499 17.7429 15.3681 17.9758 15.7397 18.1207C16.5824 18.457 17.8093 18.3432 18.4254 17.4765C18.6672 17.135 18.5602 16.5735 18.377 16.3199C18.2064 16.0819 17.9442 15.893 17.6948 15.7094C17.4453 15.5308 17.1882 15.3445 17.0736 15.1427C16.8216 14.7029 16.5798 14.1932 16.6994 13.7353C16.7427 13.5697 16.8344 13.4119 16.9311 13.2437L16.9616 13.1919C17.0227 13.0833 17.1474 12.9358 17.2773 12.7832C17.5522 12.4623 17.8348 12.1311 17.8729 11.7974C17.9391 11.2619 17.7609 10.747 17.4122 10.4546C17.0278 10.1312 16.5569 10.1157 16.1012 10.1002C15.8212 10.0898 15.5539 10.0821 15.3223 10.0019C15.2383 9.9734 15.2204 9.9527 15.2179 9.94753C15.2128 9.94235 15.2052 9.92165 15.1975 9.84662C15.1746 9.59048 15.2281 9.324 15.3427 9.09373C15.3757 9.02905 15.4114 8.96178 15.447 8.89451C15.6455 8.52712 15.8696 8.11057 15.7474 7.70955C15.6787 7.48187 15.5107 7.29817 15.2459 7.16363C15.0041 7.03685 14.5688 6.81177 14.1081 6.81177C13.7796 6.81177 13.436 6.9256 13.1382 7.26971C12.8429 7.61123 12.6749 8.09505 12.6545 8.67459L12.6519 8.77291C12.6469 8.97471 12.6418 9.16358 12.5552 9.2826C12.4101 9.48441 12.0359 9.46371 11.7483 9.40938C11.453 9.35504 11.1602 9.2826 10.8675 9.19463C10.7428 9.15583 10.5875 9.10925 10.4169 9.13771C10.2948 9.15841 10.1751 9.21533 10.0631 9.30847C9.68127 9.62412 9.56164 10.2037 9.79328 10.628C9.87983 10.7858 10.002 10.9048 10.1089 11.0109L10.1624 11.0678C10.3635 11.2722 10.5951 11.5801 10.5519 11.8854C10.5264 12.0691 10.4042 12.1907 10.3075 12.2606C10.0937 12.4132 9.78564 12.4727 9.51836 12.4158C9.11361 12.3278 8.75723 12.0717 8.38303 11.8026C8.29648 11.7379 8.20993 11.6758 8.12083 11.6137C7.823 11.4067 7.46153 11.192 7.04405 11.1558C6.54767 11.1144 6.08437 11.368 5.91636 11.7742C5.76617 12.1311 5.85782 12.5891 6.14546 12.9358C6.3822 13.223 6.7004 13.4015 6.98296 13.5567Z" fill="white" fill-opacity="0.25"/>
<path d="M6.98296 13.5567L7.74154 13.9837C7.97319 14.113 8.20229 14.2553 8.2532 14.4493C8.30412 14.6538 8.15902 14.8918 8.00374 15.1402C7.97064 15.1945 7.93755 15.2462 7.90701 15.298C7.28334 16.3562 7.42844 17.7843 8.24302 18.62C8.69614 19.0831 9.32235 19.316 9.94093 19.316C10.5111 19.316 11.0762 19.1168 11.4861 18.7106C11.733 18.4674 11.9188 18.1698 12.0996 17.8852C12.3669 17.4558 12.6214 17.0522 13.0262 16.915C13.4768 16.7649 13.9858 17.003 14.332 17.2281C14.4721 17.3212 14.6095 17.4195 14.7444 17.5179C15.0499 17.7429 15.3681 17.9758 15.7397 18.1207C16.5824 18.457 17.8093 18.3432 18.4254 17.4765C18.6672 17.135 18.5602 16.5735 18.377 16.3199C18.2064 16.0819 17.9442 15.893 17.6948 15.7094C17.4453 15.5308 17.1882 15.3445 17.0736 15.1427C16.8216 14.7029 16.5798 14.1932 16.6994 13.7353C16.7427 13.5697 16.8344 13.4119 16.9311 13.2437L16.9616 13.1919C17.0227 13.0833 17.1474 12.9358 17.2773 12.7832C17.5522 12.4623 17.8348 12.1311 17.8729 11.7974C17.9391 11.2619 17.7609 10.747 17.4122 10.4546C17.0278 10.1312 16.5569 10.1157 16.1012 10.1002C15.8212 10.0898 15.5539 10.0821 15.3223 10.0019C15.2383 9.9734 15.2204 9.9527 15.2179 9.94753C15.2128 9.94235 15.2052 9.92165 15.1975 9.84662C15.1746 9.59048 15.2281 9.324 15.3427 9.09373C15.3757 9.02905 15.4114 8.96178 15.447 8.89451C15.6455 8.52712 15.8696 8.11057 15.7474 7.70955C15.6787 7.48187 15.5107 7.29817 15.2459 7.16363C15.0041 7.03685 14.5688 6.81177 14.1081 6.81177C13.7796 6.81177 13.436 6.9256 13.1382 7.26971C12.8429 7.61123 12.6749 8.09505 12.6545 8.67459L12.6519 8.77291C12.6469 8.97471 12.6418 9.16358 12.5552 9.2826C12.4101 9.48441 12.0359 9.46371 11.7483 9.40938C11.453 9.35504 11.1602 9.2826 10.8675 9.19463C10.7428 9.15583 10.5875 9.10925 10.4169 9.13771C10.2948 9.15841 10.1751 9.21533 10.0631 9.30847C9.68127 9.62412 9.56164 10.2037 9.79328 10.628C9.87983 10.7858 10.002 10.9048 10.1089 11.0109L10.1624 11.0678C10.3635 11.2722 10.5951 11.5801 10.5519 11.8854C10.5264 12.0691 10.4042 12.1907 10.3075 12.2606C10.0937 12.4132 9.78564 12.4727 9.51836 12.4158C9.11361 12.3278 8.75723 12.0717 8.38303 11.8026C8.29648 11.7379 8.20993 11.6758 8.12083 11.6137C7.823 11.4067 7.46153 11.192 7.04405 11.1558C6.54767 11.1144 6.08437 11.368 5.91636 11.7742C5.76617 12.1311 5.85782 12.5891 6.14546 12.9358C6.3822 13.223 6.7004 13.4015 6.98296 13.5567Z" fill="white" fill-opacity="0.7"/>
<path d="M10.959 7.82855C11.0608 7.82855 11.1626 7.81044 11.2619 7.77422C11.5496 7.67072 11.771 7.41459 11.8703 7.07307C11.9619 6.75484 11.9441 6.38744 11.8219 6.03817C11.6997 5.68629 11.4833 5.39135 11.2161 5.20507C10.9259 5.00326 10.5949 4.94634 10.3047 5.05242C10.0171 5.15591 9.79563 5.41205 9.69635 5.75357C9.60471 6.0718 9.62253 6.43919 9.74472 6.78847C9.96618 7.42235 10.4626 7.82855 10.959 7.82855Z" fill="white"/>
<path d="M10.959 7.82855C11.0608 7.82855 11.1626 7.81044 11.2619 7.77422C11.5496 7.67072 11.771 7.41459 11.8703 7.07307C11.9619 6.75484 11.9441 6.38744 11.8219 6.03817C11.6997 5.68629 11.4833 5.39135 11.2161 5.20507C10.9259 5.00326 10.5949 4.94634 10.3047 5.05242C10.0171 5.15591 9.79563 5.41205 9.69635 5.75357C9.60471 6.0718 9.62253 6.43919 9.74472 6.78847C9.96618 7.42235 10.4626 7.82855 10.959 7.82855Z" fill="white" fill-opacity="0.7"/>
<path d="M10.959 7.82855C11.0608 7.82855 11.1626 7.81044 11.2619 7.77422C11.5496 7.67072 11.771 7.41459 11.8703 7.07307C11.9619 6.75484 11.9441 6.38744 11.8219 6.03817C11.6997 5.68629 11.4833 5.39135 11.2161 5.20507C10.9259 5.00326 10.5949 4.94634 10.3047 5.05242C10.0171 5.15591 9.79563 5.41205 9.69635 5.75357C9.60471 6.0718 9.62253 6.43919 9.74472 6.78847C9.96618 7.42235 10.4626 7.82855 10.959 7.82855Z" fill="white" fill-opacity="0.25"/>
<path d="M10.959 7.82855C11.0608 7.82855 11.1626 7.81044 11.2619 7.77422C11.5496 7.67072 11.771 7.41459 11.8703 7.07307C11.9619 6.75484 11.9441 6.38744 11.8219 6.03817C11.6997 5.68629 11.4833 5.39135 11.2161 5.20507C10.9259 5.00326 10.5949 4.94634 10.3047 5.05242C10.0171 5.15591 9.79563 5.41205 9.69635 5.75357C9.60471 6.0718 9.62253 6.43919 9.74472 6.78847C9.96618 7.42235 10.4626 7.82855 10.959 7.82855Z" fill="white" fill-opacity="0.7"/>
</g>
<defs>
<filter id="filter0_d_44_2" x="0.520064" y="0.520064" width="25.7597" height="25.7597" filterUnits="userSpaceOnUse" color-interpolation-filters="sRGB">
<feFlood flood-opacity="0" result="BackgroundImageFix"/>
<feColorMatrix in="SourceAlpha" type="matrix" values="0 0 0 0 0 0 0 0 0 0 0 0 0 0 0 0 0 0 127 0" result="hardAlpha"/>
<feOffset/>
<feGaussianBlur stdDeviation="2.23997"/>
<feColorMatrix type="matrix" values="0 0 0 0 0 0 0 0 0 0 0 0 0 0 0 0 0 0 0.25 0"/>
<feBlend mode="normal" in2="BackgroundImageFix" result="effect1_dropShadow_44_2"/>
<feBlend mode="normal" in="SourceGraphic" in2="effect1_dropShadow_44_2" result="shape"/>
</filter>
<clipPath id="clip0_44_2">
<rect width="16.7998" height="16.7998" fill="white" transform="translate(5 5)"/>
</clipPath>
</defs>
</svg>
