<svg width="35" height="26" viewBox="0 0 35 26" fill="none" xmlns="http://www.w3.org/2000/svg">
<rect width="35" height="20" rx="10" fill="black" fill-opacity="0.3"/>
<g filter="url(#filter0_d_41_168)">
<path d="M7.38707 15L12.9221 9.045L12.7871 10.155L9.71207 4.5H11.7821L14.0921 8.805L13.2221 8.76L17.1521 4.5H19.3721L14.1671 10.14L14.2121 9.03L17.4821 15H15.3971L12.9521 10.425L13.8371 10.47L9.72707 15H7.38707ZM21.5375 15.15C20.7475 15.15 20.0225 15.04 19.3625 14.82C18.7125 14.59 18.1825 14.28 17.7725 13.89L18.7475 12.405C19.0675 12.715 19.4775 12.97 19.9775 13.17C20.4875 13.36 21.0475 13.455 21.6575 13.455C22.2075 13.455 22.6725 13.385 23.0525 13.245C23.4325 13.095 23.7225 12.885 23.9225 12.615C24.1225 12.345 24.2225 12.025 24.2225 11.655C24.2225 11.205 24.0525 10.87 23.7125 10.65C23.3825 10.42 22.8775 10.305 22.1975 10.305H21.2525L21.5225 8.97L25.1975 5.415L25.3925 6.135H19.7225L20.0525 4.5H27.1925L26.9525 5.805L23.2625 9.375L22.3175 8.79H22.7525C23.4825 8.79 24.1025 8.9 24.6125 9.12C25.1225 9.34 25.5125 9.66 25.7825 10.08C26.0525 10.49 26.1875 10.98 26.1875 11.55C26.1875 12.24 25.9925 12.86 25.6025 13.41C25.2125 13.95 24.6675 14.375 23.9675 14.685C23.2675 14.995 22.4575 15.15 21.5375 15.15Z" fill="#F4F1E1"/>
</g>
<defs>
<filter id="filter0_d_41_168" x="2.23926" y="4.5" width="30.1008" height="20.9454" filterUnits="userSpaceOnUse" color-interpolation-filters="sRGB">
<feFlood flood-opacity="0" result="BackgroundImageFix"/>
<feColorMatrix in="SourceAlpha" type="matrix" values="0 0 0 0 0 0 0 0 0 0 0 0 0 0 0 0 0 0 127 0" result="hardAlpha"/>
<feOffset dy="5.14771"/>
<feGaussianBlur stdDeviation="2.57385"/>
<feComposite in2="hardAlpha" operator="out"/>
<feColorMatrix type="matrix" values="0 0 0 0 0 0 0 0 0 0 0 0 0 0 0 0 0 0 0.25 0"/>
<feBlend mode="normal" in2="BackgroundImageFix" result="effect1_dropShadow_41_168"/>
<feBlend mode="normal" in="SourceGraphic" in2="effect1_dropShadow_41_168" result="shape"/>
</filter>
</defs>
</svg>
