<svg width="40" height="40" viewBox="0 0 40 40" fill="none" xmlns="http://www.w3.org/2000/svg">
<g clip-path="url(#clip0_72_7)">
<g filter="url(#filter0_i_72_7)">
<rect x="1" y="1" width="37" height="37" rx="5" fill="#21720A"/>
</g>
<rect x="1" y="1" width="37" height="37" rx="5" stroke="url(#paint0_linear_72_7)"/>
<path d="M15.8232 23.9606C17.591 26.291 20.1625 27.416 20.1625 27.416C20.1625 27.416 22.734 26.291 24.5019 23.9606C25.8513 22.1818 27.229 15.2421 25.5466 14.9606C22.7939 14.5 20.1625 13 20.1625 13C20.1625 13 17.7939 14.5003 14.7785 14.9606C13.0923 15.218 14.4738 22.1818 15.8232 23.9606Z" fill="white"/>
<path d="M15.8232 23.9606C17.591 26.291 20.1625 27.416 20.1625 27.416C20.1625 27.416 22.734 26.291 24.5019 23.9606C25.8513 22.1818 27.229 15.2421 25.5466 14.9606C22.7939 14.5 20.1625 13 20.1625 13C20.1625 13 17.7939 14.5003 14.7785 14.9606C13.0923 15.218 14.4738 22.1818 15.8232 23.9606Z" stroke="white" stroke-width="1.69" stroke-linejoin="bevel"/>
</g>
<defs>
<filter id="filter0_i_72_7" x="0.5" y="0.5" width="38" height="38" filterUnits="userSpaceOnUse" color-interpolation-filters="sRGB">
<feFlood flood-opacity="0" result="BackgroundImageFix"/>
<feBlend mode="normal" in="SourceGraphic" in2="BackgroundImageFix" result="shape"/>
<feColorMatrix in="SourceAlpha" type="matrix" values="0 0 0 0 0 0 0 0 0 0 0 0 0 0 0 0 0 0 127 0" result="hardAlpha"/>
<feMorphology radius="5" operator="erode" in="SourceAlpha" result="effect1_innerShadow_72_7"/>
<feOffset/>
<feGaussianBlur stdDeviation="4"/>
<feComposite in2="hardAlpha" operator="arithmetic" k2="-1" k3="1"/>
<feColorMatrix type="matrix" values="0 0 0 0 0 0 0 0 0 0 0 0 0 0 0 0 0 0 0.5 0"/>
<feBlend mode="normal" in2="shape" result="effect1_innerShadow_72_7"/>
</filter>
<linearGradient id="paint0_linear_72_7" x1="19.5" y1="1" x2="19.5" y2="38" gradientUnits="userSpaceOnUse">
<stop stop-color="#36BC10"/>
<stop offset="1" stop-color="#319C12" stop-opacity="0"/>
</linearGradient>
<clipPath id="clip0_72_7">
<rect width="40" height="40" fill="white"/>
</clipPath>
</defs>
</svg>
