<svg width="37" height="37" viewBox="0 0 37 37" fill="none" xmlns="http://www.w3.org/2000/svg">
<path fill-rule="evenodd" clip-rule="evenodd" d="M14.916 20.8319C18.1833 20.8319 20.8319 18.1833 20.8319 14.916C20.8319 11.6487 18.1833 9 14.916 9C11.6487 9 9 11.6487 9 14.916C9 18.1833 11.6487 20.8319 14.916 20.8319ZM13.192 13.6344C13.8727 13.6344 14.4245 13.0826 14.4245 12.4019C14.4245 11.7212 13.8727 11.1694 13.192 11.1694C12.5113 11.1694 11.9595 11.7212 11.9595 12.4019C11.9595 13.0826 12.5113 13.6344 13.192 13.6344Z" fill="white"/>
<path fill-rule="evenodd" clip-rule="evenodd" d="M12.8437 27.9805C14.4228 27.9805 15.7029 26.7004 15.7029 25.1212C15.7029 23.5421 14.4228 22.262 12.8437 22.262C11.2645 22.262 9.98438 23.5421 9.98438 25.1212C9.98438 26.7004 11.2645 27.9805 12.8437 27.9805ZM12.059 24.9812C12.388 24.9812 12.6547 24.7145 12.6547 24.3856C12.6547 24.0566 12.388 23.7899 12.059 23.7899C11.73 23.7899 11.4633 24.0566 11.4633 24.3856C11.4633 24.7145 11.73 24.9812 12.059 24.9812Z" fill="white"/>
<path fill-rule="evenodd" clip-rule="evenodd" d="M21.5599 16.6918C21.7275 16.0962 21.8171 15.468 21.8171 14.8189C21.8171 14.756 21.8162 14.6934 21.8146 14.6309C21.9129 14.6244 22.0122 14.6211 22.1122 14.6211C24.5626 14.6211 26.5491 16.6076 26.5491 19.0581C26.5491 21.5085 24.5626 23.495 22.1122 23.495C20.3368 23.495 18.805 22.4523 18.0957 20.9459C19.1106 20.418 19.9777 19.6454 20.619 18.7062C20.8451 18.9813 21.1879 19.1567 21.5717 19.1567C22.2524 19.1567 22.8042 18.6049 22.8042 17.9243C22.8042 17.2436 22.2524 16.6918 21.5717 16.6918C21.5678 16.6918 21.5639 16.6918 21.5599 16.6918Z" fill="white"/>
</svg>
