<svg width="37" height="37" viewBox="0 0 37 37" fill="none" xmlns="http://www.w3.org/2000/svg">
<path d="M11.4892 19.3608H18.6291H25.769C26.3053 21.6551 25.6282 26.2235 18.6291 26.1425C11.6299 26.2235 10.9528 21.6551 11.4892 19.3608Z" fill="white"/>
<path d="M13.802 10.5547C13.2992 11.3644 12.5953 13.1864 13.802 13.9962C15.0088 14.8059 13.7685 16.223 12.9975 16.8303M18.8302 10.5547C18.3274 11.3644 17.6234 13.1864 18.8302 13.9962C20.0369 14.8059 18.7967 16.223 18.0257 16.8303M23.7577 10.5547C23.2549 11.3644 22.5509 13.1864 23.7577 13.9962C24.9644 14.8059 23.7242 16.223 22.9532 16.8303M18.6291 19.3608C15.8408 19.3608 14.2775 19.3608 11.4892 19.3608C10.9528 21.6551 11.6299 26.2235 18.6291 26.1425C25.6282 26.2235 26.3053 21.6551 25.769 19.3608H18.6291Z" stroke="white" stroke-width="1.69" stroke-linejoin="round"/>
</svg>
