<svg width="37" height="37" viewBox="0 0 37 37" fill="none" xmlns="http://www.w3.org/2000/svg">
<path d="M17.7996 14.483V12.4428M17.7996 9V12.4428M17.7996 12.4428L19.9673 10.4026M17.7996 12.4428L15.632 10.4026" stroke="white" stroke-width="1.85578" stroke-linecap="round" stroke-linejoin="round"/>
<path d="M17.7996 20.7314V22.7716M17.7996 26.2144V22.7716M17.7996 22.7716L19.9673 24.8117M17.7996 22.7716L15.632 24.8117" stroke="white" stroke-width="1.85578" stroke-linecap="round" stroke-linejoin="round"/>
<path d="M20.3818 16.3492L22.0949 15.2412M24.9856 13.3714L22.0949 15.2412M22.0949 15.2412L24.9852 15.9533M22.0949 15.2412L22.6306 12.313" stroke="white" stroke-width="1.85578" stroke-linecap="round" stroke-linejoin="round"/>
<path d="M20.3213 19.2726L22.0686 20.3258M25.0172 22.1031L22.0686 20.3258M22.0686 20.3258L22.6969 23.2355M22.0686 20.3258L24.935 19.5225" stroke="white" stroke-width="1.85578" stroke-linecap="round" stroke-linejoin="round"/>
<path d="M14.7812 16.3492L13.0681 15.2412M10.1773 13.3714L13.0681 15.2412M13.0681 15.2412L10.1778 15.9533M13.0681 15.2412L12.5323 12.313" stroke="white" stroke-width="1.85578" stroke-linecap="round" stroke-linejoin="round"/>
<path d="M14.8399 19.2726L13.0926 20.3258M10.1441 22.1031L13.0926 20.3258M13.0926 20.3258L12.4644 23.2355M13.0926 20.3258L10.2263 19.5225" stroke="white" stroke-width="1.85578" stroke-linecap="round" stroke-linejoin="round"/>
<path d="M20.3499 16.1415L17.7997 14.6113L14.9945 16.1415V19.3292L17.7997 20.8593L20.3499 19.3292V16.1415Z" stroke="white" stroke-width="1.85578" stroke-linecap="round" stroke-linejoin="round"/>
</svg>
