<svg width="25" height="25" viewBox="0 0 25 25" fill="none" xmlns="http://www.w3.org/2000/svg">
<path d="M10.2622 9.16667L14.7061 2.5L19.8889 6.32222L17.9994 9.16667H10.2622ZM10.2622 9.16667H5.72333L9.42833 3.61111L12.5 5.83333L10.2622 9.16667ZM22 10.2778V21.3889C22 21.6836 21.8888 21.9662 21.6908 22.1746C21.4929 22.3829 21.2244 22.5 20.9444 22.5H4.05556C3.7756 22.5 3.50712 22.3829 3.30917 22.1746C3.11121 21.9662 3 21.6836 3 21.3889V10.2778C3 9.98309 3.11121 9.70048 3.30917 9.4921C3.50712 9.28373 3.7756 9.16667 4.05556 9.16667H20.9444C21.2244 9.16667 21.4929 9.28373 21.6908 9.4921C21.8888 9.70048 22 9.98309 22 10.2778ZM22 18.0556H16.7222C16.4423 18.0556 16.1738 17.9385 15.9758 17.7301C15.7779 17.5217 15.6667 17.2391 15.6667 16.9444V14.7222C15.6667 14.4275 15.7779 14.1449 15.9758 13.9365C16.1738 13.7282 16.4423 13.6111 16.7222 13.6111H22V18.0556Z" stroke="white" stroke-width="2" stroke-linecap="round" stroke-linejoin="round"/>
</svg>
