<svg width="20" height="20" viewBox="0 0 20 20" fill="none" xmlns="http://www.w3.org/2000/svg">
<path d="M10 3.33997C10.1392 3.34004 10.2757 3.37888 10.3941 3.45213C10.5126 3.52538 10.6082 3.63015 10.6705 3.7547L12.6054 7.62309L16.8578 8.24107C16.9963 8.26119 17.1265 8.31967 17.2335 8.4099C17.3405 8.50012 17.4201 8.6185 17.4633 8.75163C17.5066 8.88476 17.5117 9.02733 17.4781 9.16322C17.4445 9.2991 17.3736 9.42288 17.2733 9.52054L14.1781 12.5384L14.8741 16.7938C14.8965 16.9316 14.88 17.0728 14.8264 17.2017C14.7729 17.3306 14.6844 17.442 14.571 17.5233C14.4577 17.6047 14.3238 17.6528 14.1846 17.6623C14.0453 17.6717 13.9062 17.6421 13.7829 17.5768L10 15.5699L6.21711 17.5768C6.09377 17.6421 5.95466 17.6717 5.81542 17.6623C5.67619 17.6528 5.54235 17.6047 5.42896 17.5233C5.31557 17.442 5.22713 17.3306 5.17359 17.2017C5.12005 17.0728 5.10353 16.9316 5.12589 16.7938L5.82187 12.5384L2.72671 9.52054C2.62644 9.42288 2.55549 9.2991 2.52191 9.16322C2.48832 9.02733 2.49344 8.88476 2.53667 8.75163C2.5799 8.6185 2.65953 8.50012 2.76654 8.4099C2.87355 8.31967 3.00368 8.26119 3.1422 8.24107L7.39458 7.62309L9.32952 3.7547C9.39176 3.63015 9.48745 3.52538 9.60587 3.45213C9.72429 3.37888 9.86076 3.34004 10 3.33997Z" fill="#FAD200"/>
</svg>
